<svg xmlns="http://www.w3.org/2000/svg" xmlns:xlink="http://www.w3.org/1999/xlink" viewBox="0,0,256,256" width="32px" height="32px"><g transform=""><g fill="#000000" fill-rule="nonzero" stroke="none" stroke-width="1" stroke-linecap="butt" stroke-linejoin="miter" stroke-miterlimit="10" stroke-dasharray="" stroke-dashoffset="0" font-family="none" font-weight="none" font-size="none" text-anchor="none" style="mix-blend-mode: normal"><path d="M0,256v-256h256v256z" id="bgRectangle"></path></g><g fill="#ffffff" fill-rule="nonzero" stroke="none" stroke-width="1" stroke-linecap="butt" stroke-linejoin="miter" stroke-miterlimit="10" stroke-dasharray="" stroke-dashoffset="0" font-family="none" font-weight="none" font-size="none" text-anchor="none" style="mix-blend-mode: normal"><path d="M69.632,200.96c-8.05894,0 -14.592,-6.53306 -14.592,-14.592v-116.736c0,-8.05894 6.53306,-14.592 14.592,-14.592h116.736c8.05894,0 14.592,6.53306 14.592,14.592v116.736c0,8.05894 -6.53306,14.592 -14.592,14.592z" id="shape"></path></g><g fill="#ffffff" fill-rule="nonzero" stroke="none" stroke-width="1" stroke-linecap="butt" stroke-linejoin="miter" stroke-miterlimit="10" stroke-dasharray="" stroke-dashoffset="0" font-family="none" font-weight="none" font-size="none" text-anchor="none" style="mix-blend-mode: normal"><g transform="translate(0,12) scale(8,8)"><path d="M7,5v23l1.59375,-1.1875l7.40625,-5.5625l7.40625,5.5625l1.59375,1.1875v-23zM9,7h14v17l-6.40625,-4.8125l-0.59375,-0.4375l-0.59375,0.4375l-6.40625,4.8125z"></path></g></g></g></svg>